<svg width="27" height="30" viewBox="0 0 27 30" fill="none" xmlns="http://www.w3.org/2000/svg">
<path d="M13.1612 15.8566C12.9074 15.5793 12.4691 15.557 12.2521 15.864C11.8758 16.3965 11.6712 17.038 11.6661 17.7244C11.6594 18.629 12.002 19.5053 12.6305 20.1918C13.2591 20.8784 14.1017 21.297 15.0032 21.3703C15.0464 21.3739 15.0893 21.3764 15.1322 21.3784V21.3784C15.8517 21.4103 16.6149 21.7591 16.8196 22.4496L17.5398 24.879V24.879C18.1667 26.62 16.8767 28.4556 15.0263 28.4556H5.39727C3.53614 28.4556 2.11787 26.7749 2.58983 24.9746C4.64119 17.1497 8.89049 10.2136 14.6381 4.86496V4.86496C15.3351 4.21756 16.434 4.72657 16.434 5.67789V6.92054C16.434 7.26835 16.5403 7.60786 16.7385 7.89366L22.9615 16.8659C23.5759 17.7518 23.4683 18.9505 22.706 19.7128V19.7128C21.9528 20.4659 20.7828 20.5455 19.7924 20.1537C19.1448 19.8975 18.4634 19.7246 17.7393 19.6363C16.9949 19.5455 16.2719 19.9517 15.5255 20.0242C14.8626 20.0885 14.1418 19.8262 13.6349 19.2726C13.2393 18.8403 13.0236 18.2942 13.0277 17.7345C13.03 17.4361 13.0952 17.1534 13.2169 16.9018C13.3806 16.5633 13.4151 16.134 13.1612 15.8566V15.8566ZM20.5494 22.2913V22.2913C21.1622 22.7025 21.9802 22.6227 22.502 22.1009L24.255 20.3479C25.2808 19.322 25.4256 17.709 24.5987 16.5169L18.4875 7.70571C18.156 7.2277 17.9783 6.65984 17.9783 6.07811V3.28666C17.9783 1.97913 16.4548 1.2633 15.4483 2.09792V2.09792C14.8294 2.61107 14.2032 3.16126 13.5859 3.73438C6.63447 10.2036 1.92044 18.8896 0.312452 28.1926V28.1926C0.149246 29.1367 0.876121 30 1.83418 30H16.7562C18.8341 30 20.2828 27.9386 19.5788 25.9836L17.9924 21.5784C17.9831 21.5525 17.9783 21.5252 17.9783 21.4977V21.4977C17.9783 21.3465 18.1177 21.2335 18.2643 21.2707C19.0748 21.4766 19.8465 21.8198 20.5494 22.2913Z" fill="white"/>
</svg>
